<svg width="32" height="32" viewBox="0 0 32 32" fill="none" xmlns="http://www.w3.org/2000/svg">
<path d="M16 0C20.2435 0 24.3131 1.68571 27.3137 4.68629C30.3143 7.68687 32 11.7565 32 16C32 20.2435 30.3143 24.3131 27.3137 27.3137C24.3131 30.3143 20.2435 32 16 32C11.7565 32 7.68687 30.3143 4.68629 27.3137C1.68571 24.3131 0 20.2435 0 16C0 11.7565 1.68571 7.68687 4.68629 4.68629C7.68687 1.68571 11.7565 0 16 0ZM18.124 8.624C18.124 8.09357 17.9133 7.58486 17.5382 7.20979C17.1631 6.83471 16.6544 6.624 16.124 6.624C15.5936 6.624 15.0849 6.83471 14.7098 7.20979C14.3347 7.58486 14.124 8.09357 14.124 8.624V14.124H8.624C8.09357 14.124 7.58486 14.3347 7.20979 14.7098C6.83471 15.0849 6.624 15.5936 6.624 16.124C6.624 16.6544 6.83471 17.1631 7.20979 17.5382C7.58486 17.9133 8.09357 18.124 8.624 18.124H14.124V23.624C14.124 24.1544 14.3347 24.6631 14.7098 25.0382C15.0849 25.4133 15.5936 25.624 16.124 25.624C16.6544 25.624 17.1631 25.4133 17.5382 25.0382C17.9133 24.6631 18.124 24.1544 18.124 23.624V18.124H23.624C24.1544 18.124 24.6631 17.9133 25.0382 17.5382C25.4133 17.1631 25.624 16.6544 25.624 16.124C25.624 15.5936 25.4133 15.0849 25.0382 14.7098C24.6631 14.3347 24.1544 14.124 23.624 14.124H18.124V8.624Z" fill="#EC1A23"/>
</svg>
