<svg width="105" height="60" viewBox="0 0 105 60" fill="none" xmlns="http://www.w3.org/2000/svg">
<path d="M61.5674 0.0821588C62.6833 0.00474771 63.8275 0.0592532 64.9434 0.107495C68.5761 0.264272 72.4615 0.781226 75.3664 3.1713C77.6447 5.04583 79.0692 7.91397 79.3489 10.8374C79.6326 13.8064 78.704 16.9632 76.7984 19.2665C74.109 22.5173 70.3274 23.7627 66.2695 24.1613C66.1212 24.0437 64.0626 18.5635 63.9103 18.0253C66.3854 18.0451 69.1502 18.016 71.0275 16.1484C72.0713 15.1101 72.4898 13.6545 72.4878 12.211C72.4864 10.6832 72.0781 8.92357 70.9487 7.82073C68.4898 5.42016 62.438 6.03285 59.1873 6.06074C58.5095 4.07888 57.6294 2.15518 57.0074 0.155064C58.5283 0.174601 60.0485 0.150273 61.5674 0.0821588Z" fill="#EC1A22"/>
<path d="M33.3196 29.8349C35.1511 29.8329 37.055 29.7321 38.8714 29.9853C39.7657 30.1101 40.6735 30.3602 41.472 30.789C42.6515 31.4225 43.4717 32.4483 43.8489 33.7304C44.3369 35.3896 44.1806 37.4721 43.3352 38.9941C42.5888 40.3375 41.4113 41.0258 39.9749 41.4374C38.7624 41.6422 37.4668 41.556 36.2376 41.5546H30.6389L30.6487 45.538L25.2708 45.54V29.8349H33.3196ZM34.6497 33.5107C33.3192 33.5138 31.9821 33.5471 30.6526 33.4999L30.6321 37.915L34.2893 37.9198C35.1673 37.9239 36.1569 38.017 37.0139 37.829C37.4148 37.7414 37.6805 37.5893 38.0032 37.3398C38.4719 36.7304 38.6979 36.1376 38.5989 35.3564C38.5281 34.7974 38.2886 34.3214 37.8264 33.9853C37.5287 33.7688 37.1722 33.6361 36.8108 33.5741C36.1104 33.4542 35.3594 33.5091 34.6497 33.5107Z" fill="#EC1A22"/>
<path d="M94.1857 29.3853C96.8736 29.288 100.246 29.4617 102.491 31.0708C103.714 31.9474 104.245 33.0376 104.492 34.4916C102.685 34.581 100.851 34.5216 99.0401 34.522C98.9646 34.3528 98.8864 34.1971 98.7611 34.0582C98.0003 33.216 96.4262 33.0748 95.3669 33.041C94.2328 33.0048 92.088 33.0057 91.2308 33.885C91.0806 34.0395 91.0442 34.1678 91.0435 34.3781C91.6816 35.7219 100.744 35.2801 103.422 37.7627C104.285 38.5631 104.648 39.6256 104.675 40.7824C104.702 41.9109 104.383 42.9269 103.593 43.7509C101.601 45.8294 97.9922 45.983 95.2813 46.0476C92.6587 46.0193 89.462 45.9688 87.3111 44.2771C86.0166 43.2597 85.5719 41.9392 85.3852 40.3539C87.1992 40.3748 89.0159 40.3546 90.8299 40.3539C90.9458 40.7615 91.0765 41.1152 91.3905 41.4137C92.4391 42.4102 94.249 42.3913 95.6007 42.3623C96.5987 42.3414 98.2591 42.2592 98.9781 41.4582C99.1263 41.2924 99.2301 41.0829 99.2025 40.8552C99.1452 40.3863 98.6358 40.108 98.2341 39.9726C97.3864 39.6856 96.3642 39.5987 95.4727 39.4942C92.8205 39.1843 88.9438 39.0139 86.8461 37.2176C86.0564 36.5416 85.6581 35.6092 85.5907 34.5836C85.524 33.5727 85.8225 32.6121 86.5065 31.8576C88.3104 29.8678 91.6405 29.4925 94.1857 29.3853Z" fill="#EC1A22"/>
<path d="M15.8749 29.8292C18.4165 35.0511 21.0077 40.2651 23.4394 45.5391L17.6845 45.5547C17.2506 44.6722 16.903 43.6227 16.3691 42.8047C16.2635 42.6431 16.1858 42.6396 16.0029 42.6153L7.37299 42.6055C6.90392 43.5838 6.45537 44.5721 5.97552 45.545L0.215759 45.5303C0.953355 43.7214 1.92911 41.9455 2.77924 40.1837L7.76849 29.8331L15.8749 29.8292ZM11.6767 33.4327C10.6992 35.2738 9.86585 37.2316 8.99115 39.1251L12.0439 39.1182L14.6513 39.1202C14.2572 38.2537 12.3915 33.8676 11.9072 33.4874L11.6767 33.4327Z" fill="#EC1A22"/>
<path d="M64.6523 29.8286L70.0309 29.8339C70.0599 31.8773 70.0296 33.9252 70.0296 35.9691C70.0289 37.1722 69.9325 38.462 70.1711 39.6451C70.2984 40.275 70.5491 40.8908 70.9965 41.3625C71.7135 42.1184 72.7674 42.3373 73.7681 42.3629C74.9359 42.3926 76.2 42.2922 77.076 41.4217C77.5389 40.9616 77.7977 40.3707 77.9358 39.7421C78.2424 38.3509 78.1218 36.8011 78.1191 35.3806L78.1157 29.8351L83.4964 29.8378L83.4978 33.5667L83.5045 37.4319C83.5079 39.7044 83.6238 41.7977 81.8947 43.5379C79.9196 45.5261 76.853 46.0321 74.1643 46.0469C71.4083 46.0624 68.2722 45.5814 66.2432 43.5433C65.6125 42.9093 65.1159 42.1231 64.878 41.2567C64.4434 39.6781 64.6442 37.764 64.6455 36.1312L64.6523 29.8286Z" fill="#EC1A22"/>
<path d="M49.6493 0.108215C51.8245 0.141971 54.0001 0.159349 56.1752 0.160361C56.845 2.00282 57.5937 3.81011 58.3039 5.63647L62.872 17.3757C63.7358 19.6088 64.7385 21.8337 65.4393 24.1217C63.252 24.1388 61.0627 24.1114 58.8754 24.1056C55.8889 16.0749 52.6811 8.12268 49.6493 0.108215Z" fill="#959495"/>
<path d="M42.2977 0.101135C44.477 0.114204 46.6567 0.159751 48.8359 0.156043L54.7298 15.3909C55.8626 18.3119 57.0411 21.2235 58.1112 24.1674L51.5279 24.1645C50.8692 21.7604 49.7006 19.3088 48.8013 16.9714C46.6387 11.3505 44.3751 5.75342 42.2977 0.101135Z" fill="#EC1A22"/>
<path d="M46.3175 29.832L51.6905 29.8357C51.767 33.7385 51.6969 37.6562 51.697 41.5605L62.7675 41.5619L62.7635 45.549C57.2878 45.4938 51.7966 45.4904 46.3209 45.5571C46.2504 40.3188 46.3156 35.0712 46.3175 29.832Z" fill="#EC1A22"/>
<path d="M15.6247 48.0716C17.773 48.077 20.137 48.3508 21.7213 49.9671C22.7152 50.9817 23.0691 52.3376 23.0368 53.7288C23.0027 55.1935 22.5906 56.4833 21.5192 57.5101C19.5632 59.222 16.5902 59.0669 14.154 59.0628L10.4088 59.0657L10.4127 48.0745L15.6247 48.0716ZM14.7399 49.7151C13.9596 49.7178 13.1748 49.7059 12.3952 49.7308L12.3219 49.7337C12.2481 52.2749 12.2512 54.8553 12.3219 57.3958C14.571 57.3918 18.2566 57.7685 20.0504 56.388C20.8335 55.5849 21.1095 54.6019 21.0963 53.4984C21.0849 52.5405 20.8347 51.6055 20.1286 50.9163C18.7683 49.5891 16.4943 49.7084 14.7399 49.7151Z" fill="#5F5E5F"/>
<path d="M78.232 48.0778C79.713 48.0738 81.4641 47.8811 82.8911 48.2819C83.7334 48.5191 84.5365 49 84.9536 49.7956C85.3027 50.4612 85.3968 51.3833 85.1421 52.0954C84.8004 53.0498 83.8691 53.4505 83.0249 53.8601C83.3261 53.918 83.6236 53.9904 83.9126 54.0935C86.1848 54.9 84.9052 57.3601 85.7095 58.9958C85.7196 59.0159 85.7297 59.0362 85.7398 59.0563C85.2061 59.0617 84.1214 59.2214 83.6861 58.9216C83.6079 58.5847 83.5427 58.248 83.5279 57.9011C83.4976 57.2185 83.7043 55.7841 83.2085 55.2653C82.943 54.9877 82.5569 54.8435 82.189 54.7653C81.3678 54.5916 80.4037 54.6865 79.565 54.6872L75.0601 54.696C75.0534 56.1525 75.0561 57.6086 75.0669 59.0651L73.1783 59.0632C73.2328 55.4036 73.1916 51.7371 73.1822 48.0768L78.232 48.0778ZM82.5425 49.988C81.6584 49.5059 76.3727 49.708 75.065 49.7282C75.0501 50.8406 75.0486 51.9538 75.062 53.0661L79.3238 53.0778C80.1518 53.0792 81.0525 53.1529 81.8677 53.0007C82.2456 52.9306 82.5225 52.8005 82.8365 52.5837C83.1572 52.2057 83.2825 51.8475 83.4038 51.3786C83.2489 50.8067 83.101 50.2931 82.5425 49.988Z" fill="#5F5E5F"/>
<path d="M29.8798 48.0777C31.4231 48.0744 33.4664 47.8585 34.9238 48.3326C35.7221 48.5927 36.4869 49.0921 36.8632 49.8668C37.1807 50.5202 37.2354 51.4432 36.9882 52.1344C36.6413 53.1039 35.6971 53.4684 34.8349 53.8531C35.1985 53.9266 35.5898 54.0024 35.9306 54.152C37.9091 55.019 36.8794 57.3776 37.5419 58.9898C37.5509 59.0121 37.561 59.0337 37.5703 59.0553C37.068 59.0674 36.5617 59.0861 36.0595 59.0699C35.8037 59.0618 35.7004 59.0425 35.5214 58.8522C35.3557 58.054 35.5182 55.7036 35.0595 55.2438C34.7666 54.9514 34.3432 54.8144 33.9453 54.7457C33.1482 54.6077 32.2466 54.6864 31.4375 54.6871L26.8906 54.6979L26.9003 59.0611L25.0722 59.0621L25.0761 48.0738L29.8798 48.0777ZM33.832 49.7887C33.0088 49.6324 32.0797 49.7112 31.2412 49.7125L26.8984 49.7223C26.8857 50.8365 26.8834 51.9508 26.8925 53.065L31.0947 53.0777C31.9916 53.0798 32.9927 53.1703 33.871 52.9723C34.1951 52.8995 34.4343 52.7605 34.7031 52.5699C35.0741 52.1495 35.2306 51.7941 35.2021 51.2242C35.1807 50.7971 34.9554 50.4193 34.6328 50.1451C34.3937 49.9424 34.1364 49.8466 33.832 49.7887Z" fill="#5F5E5F"/>
<path d="M93.2456 47.7104C94.8056 47.6349 96.8042 47.9017 98.158 48.7324C99.1883 49.3651 99.6054 50.1749 99.8716 51.3303C99.2173 51.3229 98.563 51.329 97.9087 51.3297C97.819 51.0009 97.6816 50.7341 97.4376 50.4909C96.4666 49.5227 94.7948 49.3718 93.501 49.3657C92.3791 49.361 90.4108 49.4661 89.592 50.3433C89.4189 50.5313 89.336 50.7846 89.3643 51.0386C89.431 51.618 90.148 51.9239 90.6352 52.0775C93.0192 52.8294 97.2139 52.4764 99.1499 54.0954C99.6742 54.5333 99.9316 55.0965 99.9666 55.7716C100.008 56.5525 99.7577 57.2976 99.2139 57.8676C97.8568 59.2919 95.1937 59.3714 93.3487 59.399C91.7767 59.3478 90.0233 59.1686 88.6931 58.253C87.6615 57.5428 87.2605 56.6104 87.0375 55.4125C87.677 55.4199 88.3171 55.4132 88.9566 55.3916C89.1621 55.9643 89.3569 56.3712 89.8488 56.7674C91.2133 57.8656 93.4923 57.8568 95.1311 57.656C95.9788 57.5516 97.2901 57.334 97.8305 56.5976C97.9848 56.3867 98.0603 56.1071 98.0151 55.8477C97.7894 54.5447 94.7012 54.3763 93.6803 54.2442C92.9013 54.1439 92.1203 54.0468 91.3481 53.9027C90.344 53.7154 89.2261 53.4546 88.3879 52.8388C87.8677 52.4575 87.5098 51.9408 87.4297 51.2919C87.3474 50.6236 87.5307 49.9 87.9728 49.3853C89.1904 47.9664 91.5165 47.8074 93.2456 47.7104Z" fill="#5F5E5F"/>
<path d="M59.905 48.0776L71.0504 48.0796L71.0538 49.7228L61.7682 49.7262C61.754 50.6458 61.7729 51.5675 61.7769 52.4872C64.8328 52.5242 67.8934 52.4932 70.9507 52.4939L70.9527 54.1479L65.9521 54.1445L61.7601 54.1472L61.7756 57.3967L71.1717 57.3926L71.171 59.0594L59.9036 59.0581C59.9703 55.4044 59.9279 51.7319 59.905 48.0776Z" fill="#5F5E5F"/>
<path d="M35.6357 14.7298C37.9649 14.7164 40.2942 14.7214 42.6233 14.7446C41.9942 16.2119 41.4641 17.7403 40.8889 19.231C40.2611 20.8578 39.578 22.4828 39.0309 24.1379C36.7148 24.1529 34.4038 24.2055 32.089 24.0899C32.3674 23.0411 32.8589 21.9858 33.2465 20.9699L35.6357 14.7298Z" fill="#EC1A22"/>
<path d="M56.0465 48.0708L58.1631 48.0722L57.5667 49.1326L51.9084 59.0628L49.4088 59.0634L43.1762 48.0769L45.2874 48.0742C45.8235 49.0949 50.3428 57.2686 50.6569 57.4283C51.3627 56.7822 55.2884 49.4264 56.0465 48.0708Z" fill="#5F5E5F"/>
<path d="M39.5465 48.0756L41.4583 48.0749L41.4565 59.0662L39.5528 59.0642L39.5465 48.0756Z" fill="#5F5E5F"/>
</svg>
