<svg width="32" height="32" viewBox="0 0 32 32" fill="none" xmlns="http://www.w3.org/2000/svg">
<rect x="0.25" y="0.25" width="31.5" height="31.5" rx="15.75" stroke="black" stroke-width="0.5"/>
<path d="M15.5016 11.2126L8.19015 18.85C8.06809 18.9774 8 19.1467 8 19.3228C8 19.4988 8.06809 19.6681 8.19015 19.7956L8.19841 19.8038C8.25758 19.8658 8.3288 19.9151 8.40774 19.9489C8.48669 19.9826 8.5717 20 8.65761 20C8.74352 20 8.82853 19.9826 8.90747 19.9489C8.98641 19.9151 9.05764 19.8658 9.11681 19.8038L16.0014 12.6118L22.8832 19.8038C22.9424 19.8658 23.0136 19.9151 23.0925 19.9489C23.1715 19.9826 23.2565 20 23.3424 20C23.4283 20 23.5133 19.9826 23.5923 19.9489C23.6712 19.9151 23.7424 19.8658 23.8016 19.8038L23.8099 19.7956C23.9319 19.6681 24 19.4988 24 19.3228C24 19.1467 23.9319 18.9774 23.8099 18.85L16.4984 11.2126C16.4341 11.1454 16.3568 11.0919 16.2711 11.0554C16.1855 11.0188 16.0932 11 16 11C15.9068 11 15.8145 11.0188 15.7289 11.0554C15.6432 11.0919 15.5659 11.1454 15.5016 11.2126Z" fill="black"/>
</svg>
