<svg width="32" height="32" viewBox="0 0 32 32" fill="none" xmlns="http://www.w3.org/2000/svg">
<rect x="0.25" y="0.25" width="31.5" height="31.5" rx="15.75" stroke="black" stroke-width="0.5"/>
<path d="M15.5016 19.7874L8.19015 12.15C8.06809 12.0226 8 11.8533 8 11.6772C8 11.5012 8.06809 11.3319 8.19015 11.2044L8.19841 11.1962C8.25758 11.1342 8.3288 11.0849 8.40774 11.0511C8.48669 11.0174 8.5717 11 8.65761 11C8.74352 11 8.82853 11.0174 8.90747 11.0511C8.98641 11.0849 9.05764 11.1342 9.11681 11.1962L16.0014 18.3882L22.8832 11.1962C22.9424 11.1342 23.0136 11.0849 23.0925 11.0511C23.1715 11.0174 23.2565 11 23.3424 11C23.4283 11 23.5133 11.0174 23.5923 11.0511C23.6712 11.0849 23.7424 11.1342 23.8016 11.1962L23.8099 11.2044C23.9319 11.3319 24 11.5012 24 11.6772C24 11.8533 23.9319 12.0226 23.8099 12.15L16.4984 19.7874C16.4341 19.8546 16.3568 19.9081 16.2711 19.9446C16.1855 19.9812 16.0932 20 16 20C15.9068 20 15.8145 19.9812 15.7289 19.9446C15.6432 19.9081 15.5659 19.8546 15.5016 19.7874Z" fill="black"/>
</svg>
