<svg width="80" height="96" viewBox="0 0 80 96" fill="none" xmlns="http://www.w3.org/2000/svg">
<path d="M19.2727 56.5185V5.40741C19.2727 4.50371 19.6367 3.63702 20.2845 2.99801C20.9324 2.35899 21.8111 2 22.7273 2H64.1818C65.098 2 65.9767 2.35899 66.6246 2.99801C67.2724 3.63702 67.6364 4.50371 67.6364 5.40741V73.5556C67.6364 74.4593 67.2724 75.3259 66.6246 75.965C65.9767 76.604 65.098 76.963 64.1818 76.963H26.1818M43.4545 12.2222V15.6296M19.2727 12.2222H11.9076C11.0753 12.2223 10.271 12.5189 9.64266 13.0573C9.01431 13.5957 8.60416 14.3397 8.48764 15.1526L2.03455 59.6874L2 60.1644V85.3588C2.00029 85.92 2.14109 86.4723 2.40987 86.9669C2.67865 87.4615 3.06711 87.8829 3.54073 88.1938L11.4931 93.4276C12.0599 93.8003 12.7257 93.9995 13.4069 94H34.4105C35.0516 94 35.6799 93.824 36.2254 93.4919C36.7708 93.1597 37.2117 92.6844 37.4989 92.1191L43.2058 80.8679C43.3705 80.5405 43.5874 80.2413 43.8484 79.9819L46.9091 76.963M67.6364 22.4444H71.8509C72.6215 22.4447 73.3699 22.699 73.977 23.167C74.5842 23.635 75.0153 24.2898 75.2018 25.0273L76.9291 31.8421C77.0561 32.3443 77.0654 32.8684 76.9564 33.3747C76.8473 33.881 76.6228 34.3561 76.2998 34.764C75.9768 35.1719 75.5639 35.5019 75.0923 35.7289C74.6207 35.9559 74.1029 36.0739 73.5782 36.0741H71.0909C70.1747 36.0741 69.296 36.4331 68.6482 37.0721C68.0003 37.7111 67.6364 38.5778 67.6364 39.4815V42.8889C67.6364 43.7926 68.0003 44.6593 68.6482 45.2983C69.296 45.9373 70.1747 46.2963 71.0909 46.2963H74.5455C75.4617 46.2963 76.3403 46.6553 76.9882 47.2943C77.636 47.9333 78 48.8 78 49.7037V53.1111C78 54.0148 77.636 54.8815 76.9882 55.5205C76.3403 56.1595 75.4617 56.5185 74.5455 56.5185H67.6364M15.8182 59.9259L30.6451 45.3013C30.966 44.984 31.3472 44.7323 31.7669 44.5605C32.1866 44.3887 32.6365 44.3003 33.0909 44.3003C33.5453 44.3003 33.9952 44.3887 34.4149 44.5605C34.8346 44.7323 35.2158 44.984 35.5367 45.3013L41.3404 51.0258C41.9269 51.6059 42.2819 52.3751 42.3402 53.1924C42.3986 54.0097 42.1565 54.8203 41.6582 55.4759L23.4182 79.464C22.9697 80.0538 22.7273 80.7712 22.7273 81.5084V90.5926M29.6364 53.1111L33.0909 56.5185M50.3636 25.8519C50.3636 24.0445 49.6357 22.3111 48.34 21.0331C47.0443 19.755 45.287 19.037 43.4545 19.037C41.6221 19.037 39.8648 19.755 38.5691 21.0331C37.2734 22.3111 36.5455 24.0445 36.5455 25.8519M29.6364 29.2593H57.2727" stroke="#EC1A23" stroke-width="3"/>
</svg>
