<svg width="40" height="36" viewBox="0 0 40 36" fill="none" xmlns="http://www.w3.org/2000/svg">
<rect y="0.5" width="40" height="35" rx="2" fill="#FFE2E2"/>
<path fill-rule="evenodd" clip-rule="evenodd" d="M27.1595 13.3332C27.3704 13.5441 27.4889 13.8302 27.4889 14.1286C27.4889 14.4269 27.3704 14.713 27.1595 14.9239L18.7273 23.3562C18.6158 23.4676 18.4835 23.5561 18.3379 23.6164C18.1923 23.6767 18.0363 23.7077 17.8786 23.7077C17.721 23.7077 17.565 23.6767 17.4194 23.6164C17.2738 23.5561 17.1415 23.4676 17.03 23.3562L12.8405 19.1674C12.7331 19.0636 12.6474 18.9395 12.5884 18.8023C12.5294 18.665 12.4984 18.5174 12.4971 18.368C12.4958 18.2186 12.5243 18.0705 12.5808 17.9322C12.6374 17.794 12.7209 17.6684 12.8266 17.5627C12.9322 17.4571 13.0578 17.3736 13.1961 17.317C13.3343 17.2604 13.4825 17.232 13.6318 17.2333C13.7812 17.2346 13.9288 17.2656 14.0661 17.3246C14.2034 17.3835 14.3275 17.4692 14.4313 17.5767L17.8783 21.0237L25.568 13.3332C25.6725 13.2286 25.7965 13.1457 25.9331 13.0891C26.0696 13.0325 26.216 13.0034 26.3638 13.0034C26.5116 13.0034 26.6579 13.0325 26.7945 13.0891C26.931 13.1457 27.055 13.2286 27.1595 13.3332Z" fill="#EC1A23"/>
</svg>
