<svg width="50" height="50" viewBox="0 0 50 50" fill="none" xmlns="http://www.w3.org/2000/svg">
<circle cx="25" cy="25" r="25" fill="#FFE2E2"/>
<path d="M10.7778 10.75C11.7611 10.75 12.5556 11.532 12.5556 12.5V24.75H25V17.75C25 16.782 25.7944 16 26.7778 16H35.6667C38.6111 16 41 18.3516 41 21.25V33.5C41 34.468 40.2056 35.25 39.2222 35.25C38.2389 35.25 37.4444 34.468 37.4444 33.5V30H12.5556V33.5C12.5556 34.468 11.7611 35.25 10.7778 35.25C9.79444 35.25 9 34.468 9 33.5V12.5C9 11.532 9.79444 10.75 10.7778 10.75ZM15.2222 19.5C15.2222 18.5717 15.5968 17.6815 16.2636 17.0251C16.9304 16.3687 17.8348 16 18.7778 16C19.7208 16 20.6251 16.3687 21.2919 17.0251C21.9587 17.6815 22.3333 18.5717 22.3333 19.5C22.3333 20.4283 21.9587 21.3185 21.2919 21.9749C20.6251 22.6313 19.7208 23 18.7778 23C17.8348 23 16.9304 22.6313 16.2636 21.9749C15.5968 21.3185 15.2222 20.4283 15.2222 19.5Z" fill="#EC1A23"/>
</svg>
