<svg width="68" height="76" viewBox="0 0 68 76" fill="none" xmlns="http://www.w3.org/2000/svg">
<path d="M27.75 10.9166C27.75 10.3641 27.9695 9.83415 28.3602 9.44345C28.7509 9.05275 29.2808 8.83325 29.8333 8.83325H38.1667C38.7192 8.83325 39.2491 9.05275 39.6398 9.44345C40.0305 9.83415 40.25 10.3641 40.25 10.9166C40.25 11.4691 40.0305 11.999 39.6398 12.3897C39.2491 12.7804 38.7192 12.9999 38.1667 12.9999H29.8333C29.2808 12.9999 28.7509 12.7804 28.3602 12.3897C27.9695 11.999 27.75 11.4691 27.75 10.9166Z" fill="#EC1A23"/>
<path fill-rule="evenodd" clip-rule="evenodd" d="M53.5082 26.5833C52.7519 27.1771 51.7707 27.6521 50.5874 28.0375C50.6401 28.5736 50.6665 29.1167 50.6665 29.6667C50.6656 31.9235 50.2064 34.1566 49.3167 36.2306C48.427 38.3046 47.1253 40.1764 45.4906 41.7323C43.8559 43.2883 41.9223 44.496 39.8069 45.2823C37.6915 46.0686 35.4384 46.4172 33.1843 46.3067C30.9302 46.1963 28.722 45.6292 26.6936 44.6399C24.6652 43.6506 22.8589 42.2596 21.3841 40.5513C19.9093 38.843 18.7968 36.853 18.1141 34.702C17.4314 32.5509 17.1927 30.2836 17.4124 28.0375C16.229 27.6521 15.2478 27.1771 14.4936 26.5833C13.5144 25.8125 12.8582 24.7833 12.7811 23.5458C12.7082 22.3979 13.1624 21.4229 13.6165 20.7354C14.0647 20.0841 14.5971 19.4949 15.1999 18.9833C15.4943 18.7278 15.7762 18.5007 16.0457 18.3021C15.9651 17.8729 15.8804 17.359 15.7915 16.7604C15.4243 14.1341 15.2433 11.4852 15.2499 8.83333C15.2499 8.17917 15.529 7.69167 15.6582 7.48542C15.8207 7.225 16.0124 7.00208 16.1874 6.82292C16.5353 6.45833 16.9853 6.0875 17.479 5.73125C18.479 5.00625 19.854 4.19167 21.4874 3.42917C24.7436 1.90833 29.2165 0.5 33.9999 0.5C38.7832 0.5 43.2561 1.91042 46.5124 3.42917C47.9167 4.0711 49.2585 4.84175 50.5207 5.73125C51.0144 6.0875 51.4644 6.46042 51.8124 6.82292C51.9874 7.00208 52.179 7.225 52.3415 7.48542C52.4707 7.69167 52.7499 8.17917 52.7499 8.83333C52.7499 12.1708 52.479 14.875 52.2082 16.7604C52.1193 17.3604 52.0346 17.8743 51.954 18.3021C52.2207 18.5 52.5103 18.7271 52.8019 18.9833C53.3228 19.4396 53.9186 20.0333 54.3832 20.7354C54.8394 21.4229 55.2915 22.3979 55.2207 23.5479C55.1436 24.7833 54.4874 25.8125 53.5082 26.5833ZM19.4207 9.49583C19.4519 12.3042 19.6853 14.575 19.9165 16.1625C19.9721 16.5375 20.0249 16.8722 20.0749 17.1667H47.9249C47.9762 16.8708 48.029 16.5361 48.0832 16.1625C48.3124 14.575 48.5478 12.3042 48.579 9.49583C48.4167 9.35893 48.2492 9.22828 48.0769 9.10417C47.3249 8.56042 46.1832 7.875 44.7499 7.20625C41.8686 5.86042 38.0082 4.66667 33.9999 4.66667C29.9915 4.66667 26.1311 5.86042 23.2499 7.20625C21.8165 7.875 20.6749 8.56042 19.9249 9.10208C19.7518 9.22751 19.5836 9.35956 19.4207 9.49792M18.9749 21.3333L18.9686 21.3375C18.6089 21.577 18.2645 21.8386 17.9374 22.1208C17.5665 22.4458 17.2707 22.7625 17.0915 23.0375C17.0499 23.1 17.0116 23.1646 16.9769 23.2313L17.0686 23.3083C17.3811 23.5542 18.0519 23.9146 19.3603 24.2708C19.6186 24.3403 19.8957 24.4083 20.1915 24.475L20.2103 24.4792C21.2561 24.7104 22.5436 24.9167 24.1124 25.0792C26.3353 25.3104 29.1332 25.4625 32.629 25.4958L33.9999 25.5C40.7228 25.5 45.0707 25.0813 47.7915 24.4792L47.8082 24.475C48.1054 24.4097 48.3832 24.3417 48.6415 24.2708C49.9478 23.9167 50.6207 23.5542 50.9311 23.3083L51.0228 23.2313C50.9888 23.1647 50.9512 23.1 50.9103 23.0375C50.6671 22.6977 50.3822 22.3898 50.0624 22.1208C49.7359 21.8387 49.3921 21.577 49.0332 21.3375L49.0249 21.3333H18.9749ZM33.4332 29.6667C38.9374 29.6667 43.204 29.375 46.4749 28.8667C46.4915 29.1306 46.4999 29.3972 46.4999 29.6667C46.4984 31.3349 46.163 32.9859 45.5135 34.5225C44.864 36.0591 43.9134 37.4501 42.7179 38.6136C41.5224 39.7771 40.1061 40.6895 38.5525 41.2971C36.9988 41.9047 35.3393 42.1951 33.6716 42.1513C32.004 42.1075 30.362 41.7303 28.8424 41.042C27.3228 40.3537 25.9563 39.3682 24.8235 38.1436C23.6908 36.9189 22.8146 35.4799 22.2466 33.9113C21.6787 32.3428 21.4304 30.6764 21.5165 29.0104C24.5644 29.4313 28.4707 29.6667 33.4332 29.6667ZM17.4957 68.9938C17.3867 69.7688 17.3324 70.5506 17.3332 71.3333V73.4167C17.3334 73.8747 17.1827 74.32 16.9044 74.6837C16.6261 75.0474 16.2357 75.3093 15.7936 75.4288C15.3515 75.5484 14.8823 75.5189 14.4587 75.345C14.035 75.1711 13.6804 74.8624 13.4499 74.4667C12.0451 75.2263 10.4029 75.4194 8.86027 75.0063L4.83528 73.9271C3.23477 73.4975 1.8704 72.4498 1.04217 71.0145C0.213933 69.5791 -0.0103586 67.8736 0.418608 66.2729L2.03527 60.2354C2.46444 58.6345 3.51192 57.2697 4.94732 56.441C6.38271 55.6124 8.08848 55.3878 9.68944 55.8167L13.7144 56.8938C15.1144 57.2688 16.2769 58.0917 17.0853 59.1667C19.0142 56.4826 21.5547 54.2965 24.4965 52.7894C27.4382 51.2823 30.6966 50.4975 34.0019 50.5C37.3055 50.4983 40.562 51.2831 43.5022 52.7894C46.4424 54.2957 48.9817 56.4803 50.9103 59.1625C51.7491 58.0535 52.9338 57.2558 54.277 56.8958L58.3019 55.8188C59.9026 55.3898 61.6081 55.6141 63.0435 56.4423C64.4788 57.2706 65.5265 58.6349 65.9561 60.2354L67.5749 66.275C67.7872 67.0679 67.8413 67.8948 67.734 68.7085C67.6268 69.5223 67.3603 70.307 66.9497 71.0177C66.5392 71.7285 65.9927 72.3514 65.3415 72.851C64.6902 73.3505 63.9469 73.7169 63.154 73.9292L59.1311 75.0063C57.5912 75.4196 55.9516 75.2288 54.5478 74.4729C54.3165 74.8681 53.9614 75.176 53.5376 75.3491C53.1137 75.5222 52.6446 75.5509 52.2028 75.4306C51.761 75.3104 51.3711 75.048 51.0934 74.684C50.8157 74.3199 50.6657 73.8745 50.6665 73.4167V71.3333C50.6674 70.5506 50.6131 69.7688 50.504 68.9938L39.6624 71.9C39.1591 72.9772 38.359 73.8885 37.3561 74.5269C36.3531 75.1654 35.1888 75.5045 33.9999 75.5045C32.8109 75.5045 31.6466 75.1654 30.6437 74.5269C29.6407 73.8885 28.8406 72.9772 28.3374 71.9L17.4957 68.9938ZM27.9999 67.4938C28.2784 66.5435 28.7788 65.6729 29.4597 64.9539C30.1407 64.235 30.9827 63.6881 31.9165 63.3583V54.7958C28.9944 55.1655 26.2222 56.3019 23.8815 58.0897C21.5407 59.8776 19.7149 62.2531 18.5894 64.975L27.9999 67.4938ZM49.4103 64.9729C48.2845 62.2514 46.4586 59.8763 44.1179 58.0889C41.7772 56.3014 39.0051 55.1653 36.0832 54.7958V63.3563C37.9665 64.0229 39.4374 65.5646 39.9999 67.4958L49.4103 64.9729ZM53.8832 63.4729C53.8123 63.2086 53.7942 62.933 53.8298 62.6617C53.8655 62.3904 53.9542 62.1288 54.091 61.8918C54.2278 61.6548 54.4099 61.4471 54.627 61.2805C54.844 61.1139 55.0918 60.9917 55.3561 60.9208L59.3811 59.8417C59.9146 59.6991 60.4828 59.7742 60.961 60.0504C61.4391 60.3266 61.788 60.7813 61.9311 61.3146L63.5499 67.3521C63.6208 67.6164 63.6389 67.892 63.6032 68.1633C63.5676 68.4346 63.4788 68.6962 63.342 68.9332C63.2053 69.1702 63.0231 69.378 62.8061 69.5445C62.589 69.7111 62.3413 69.8333 62.077 69.9042L58.0519 70.9833C57.7875 71.0542 57.5117 71.0722 57.2403 71.0365C56.9689 71.0007 56.7072 70.9117 56.4702 70.7747C56.2332 70.6378 56.0255 70.4554 55.859 70.2381C55.6925 70.0208 55.5705 69.7728 55.4999 69.5083L53.8832 63.4729ZM8.61236 59.8417C8.34793 59.7705 8.07207 59.7521 7.80053 59.7876C7.529 59.8231 7.26713 59.9118 7.02991 60.0486C6.79268 60.1854 6.58476 60.3676 6.41802 60.5849C6.25128 60.8021 6.12901 61.0501 6.05819 61.3146L4.44153 67.35C4.37063 67.6143 4.3525 67.89 4.38815 68.1612C4.42381 68.4325 4.51256 68.6942 4.64934 68.9312C4.78612 69.1681 4.96824 69.3759 5.18531 69.5425C5.40238 69.7091 5.65014 69.8313 5.91444 69.9021L9.93944 70.9813C10.2037 71.0521 10.4794 71.0703 10.7507 71.0346C11.022 70.999 11.2836 70.9102 11.5206 70.7734C11.7576 70.6367 11.9653 70.4545 12.1319 70.2375C12.2985 70.0204 12.4207 69.7726 12.4915 69.5083L14.1082 63.4708C14.1794 63.2064 14.1978 62.9305 14.1623 62.659C14.1268 62.3875 14.0381 62.1256 13.9013 61.8884C13.7645 61.6512 13.5822 61.4432 13.365 61.2765C13.1478 61.1098 12.8998 60.9875 12.6353 60.9167L8.61236 59.8417ZM36.0832 69.25C36.0832 69.8025 35.8637 70.3324 35.473 70.7231C35.0823 71.1138 34.5524 71.3333 33.9999 71.3333C33.4473 71.3333 32.9174 71.1138 32.5267 70.7231C32.136 70.3324 31.9165 69.8025 31.9165 69.25C31.9165 68.6975 32.136 68.1676 32.5267 67.7769C32.9174 67.3862 33.4473 67.1667 33.9999 67.1667C34.5524 67.1667 35.0823 67.3862 35.473 67.7769C35.8637 68.1676 36.0832 68.6975 36.0832 69.25Z" fill="#EC1A23"/>
</svg>
