<svg width="50" height="50" viewBox="0 0 50 50" fill="none" xmlns="http://www.w3.org/2000/svg">
<circle cx="25" cy="25" r="25" fill="#FFF6DC"/>
<path d="M20.61 38.9201C20.4053 38.8337 20.2353 38.6817 20.1266 38.4879C20.018 38.2942 19.977 38.0698 20.01 37.8501L21.83 26.0001H17C16.8469 26.0042 16.6948 25.9731 16.5556 25.9092C16.4165 25.8452 16.2938 25.7502 16.1972 25.6313C16.1005 25.5124 16.0325 25.373 15.9983 25.2237C15.9641 25.0743 15.9647 24.9192 16 24.7701L19 11.7701C19.0528 11.5464 19.181 11.3477 19.3632 11.2074C19.5453 11.0672 19.7702 10.994 20 11.0001H30C30.1494 10.9996 30.297 11.0326 30.432 11.0966C30.567 11.1606 30.6859 11.2541 30.78 11.3701C30.8754 11.4874 30.943 11.6249 30.9777 11.7721C31.0123 11.9194 31.0131 12.0725 30.98 12.2201L29.25 20.0001H34C34.1874 19.9997 34.3712 20.052 34.5303 20.1511C34.6894 20.2501 34.8175 20.3918 34.9 20.5601C34.9717 20.7217 34.9992 20.8993 34.9799 21.075C34.9606 21.2506 34.8951 21.418 34.79 21.5601L21.79 38.5601C21.7021 38.6904 21.5848 38.7981 21.4476 38.8745C21.3103 38.951 21.157 38.994 21 39.0001C20.8662 38.9974 20.734 38.9703 20.61 38.9201Z" fill="#EC1A23"/>
</svg>
