<svg width="30" height="30" viewBox="0 0 30 30" fill="none" xmlns="http://www.w3.org/2000/svg">
<path fill-rule="evenodd" clip-rule="evenodd" d="M8.95334 0.421252C10.5173 0.349252 11.016 0.333252 15 0.333252C18.984 0.333252 19.4827 0.350585 21.0453 0.421252C22.608 0.491919 23.6747 0.741252 24.608 1.10259C25.5853 1.47192 26.472 2.04925 27.2053 2.79592C27.952 3.52792 28.528 4.41325 28.896 5.39192C29.2587 6.32525 29.5067 7.39192 29.5787 8.95192C29.6507 10.5186 29.6667 11.0173 29.6667 14.9999C29.6667 18.9826 29.6493 19.4826 29.5787 21.0466C29.508 22.6066 29.2587 23.6733 28.896 24.6066C28.5278 25.5853 27.9509 26.4721 27.2053 27.2053C26.472 27.9519 25.5853 28.5279 24.608 28.8959C23.6747 29.2586 22.608 29.5066 21.048 29.5786C19.4827 29.6506 18.984 29.6666 15 29.6666C11.016 29.6666 10.5173 29.6493 8.95334 29.5786C7.39334 29.5079 6.32667 29.2586 5.39334 28.8959C4.41462 28.5278 3.52784 27.9508 2.79467 27.2053C2.04878 26.4726 1.4714 25.5863 1.10267 24.6079C0.741336 23.6746 0.493336 22.6079 0.421336 21.0479C0.349336 19.4813 0.333336 18.9826 0.333336 14.9999C0.333336 11.0173 0.350669 10.5173 0.421336 8.95459C0.492003 7.39192 0.741336 6.32525 1.10267 5.39192C1.47179 4.41344 2.04963 3.52711 2.796 2.79459C3.52827 2.04885 4.41412 1.47148 5.392 1.10259C6.32534 0.741252 7.39334 0.493252 8.95334 0.421252ZM20.9253 3.06125C19.3787 2.99059 18.9147 2.97592 14.9987 2.97592C11.0827 2.97592 10.6187 2.99059 9.072 3.06125C7.64134 3.12659 6.86534 3.36525 6.348 3.56659C5.664 3.83325 5.17467 4.14925 4.66134 4.66259C4.17431 5.13564 3.79975 5.71205 3.56534 6.34925C3.364 6.86659 3.12534 7.64259 3.06 9.07325C2.98934 10.6199 2.97467 11.0839 2.97467 14.9999C2.97467 18.9159 2.98934 19.3799 3.06 20.9266C3.12534 22.3573 3.364 23.1333 3.56534 23.6506C3.8 24.2866 4.17467 24.8639 4.66134 25.3373C5.13467 25.8239 5.712 26.1986 6.348 26.4333C6.86534 26.6346 7.64134 26.8733 9.072 26.9386C10.6187 27.0093 11.0813 27.0239 14.9987 27.0239C18.916 27.0239 19.3787 27.0093 20.9253 26.9386C22.356 26.8733 23.132 26.6346 23.6493 26.4333C24.3333 26.1666 24.8227 25.8506 25.336 25.3373C25.8227 24.8639 26.1973 24.2866 26.432 23.6506C26.6333 23.1333 26.872 22.3573 26.9373 20.9266C27.008 19.3799 27.0227 18.9159 27.0227 14.9999C27.0227 11.0839 27.008 10.6199 26.9373 9.07325C26.872 7.64259 26.6333 6.86659 26.432 6.34925C26.1653 5.66525 25.8493 5.17592 25.336 4.66259C24.8629 4.17556 24.2865 3.801 23.6493 3.56659C23.132 3.36525 22.356 3.12659 20.9253 3.06125ZM13.1253 19.5213C14.1715 19.9568 15.3365 20.0155 16.4212 19.6875C17.506 19.3596 18.4432 18.6651 19.0728 17.7229C19.7024 16.7807 19.9854 15.6491 19.8734 14.5214C19.7614 13.3937 19.2613 12.3399 18.4587 11.5399C17.947 11.0286 17.3283 10.637 16.6471 10.3934C15.9659 10.1499 15.2392 10.0604 14.5193 10.1314C13.7994 10.2024 13.1042 10.4322 12.4837 10.8041C11.8633 11.176 11.333 11.6809 10.9311 12.2824C10.5292 12.8839 10.2656 13.567 10.1594 14.2825C10.0531 14.9981 10.1069 15.7283 10.3167 16.4206C10.5266 17.1129 10.8873 17.7501 11.373 18.2862C11.8586 18.8224 12.4571 19.2442 13.1253 19.5213ZM9.66934 9.66925C10.3694 8.96922 11.2004 8.41392 12.1151 8.03507C13.0297 7.65621 14.01 7.46122 15 7.46122C15.99 7.46122 16.9703 7.65621 17.8849 8.03507C18.7996 8.41392 19.6306 8.96922 20.3307 9.66925C21.0307 10.3693 21.586 11.2003 21.9649 12.115C22.3437 13.0296 22.5387 14.0099 22.5387 14.9999C22.5387 15.9899 22.3437 16.9702 21.9649 17.8849C21.586 18.7995 21.0307 19.6306 20.3307 20.3306C18.9169 21.7444 16.9994 22.5386 15 22.5386C13.0006 22.5386 11.0831 21.7444 9.66934 20.3306C8.25556 18.9168 7.4613 16.9993 7.4613 14.9999C7.4613 13.0005 8.25556 11.083 9.66934 9.66925ZM24.2107 8.58392C24.3841 8.42028 24.523 8.22349 24.6191 8.00522C24.7151 7.78694 24.7664 7.55161 24.7699 7.31316C24.7734 7.07471 24.729 6.83798 24.6393 6.617C24.5497 6.39602 24.4166 6.19527 24.248 6.02664C24.0793 5.85801 23.8786 5.72493 23.6576 5.63528C23.4366 5.54562 23.1999 5.50122 22.9614 5.5047C22.723 5.50817 22.4876 5.55946 22.2694 5.65551C22.0511 5.75157 21.8543 5.89045 21.6907 6.06392C21.3724 6.40129 21.1982 6.84941 21.2049 7.31316C21.2117 7.7769 21.3989 8.21976 21.7269 8.54771C22.0548 8.87566 22.4977 9.06289 22.9614 9.06965C23.4252 9.07641 23.8733 8.90217 24.2107 8.58392Z" fill="black"/>
</svg>
