<svg width="28" height="28" viewBox="0 0 28 28" fill="none" xmlns="http://www.w3.org/2000/svg">
<rect x="0.25" y="0.25" width="27.5" height="27.5" rx="4.75" fill="#FFE2E2" stroke="#EC1A23" stroke-width="0.5"/>
<path fill-rule="evenodd" clip-rule="evenodd" d="M14.1852 20.9399C15.0478 20.173 15.8462 19.3394 16.5725 18.4472C18.1025 16.5637 19.0332 14.7067 19.0963 13.0554C19.1212 12.3843 19.0078 11.7152 18.7629 11.088C18.518 10.4608 18.1466 9.88837 17.6709 9.40496C17.1951 8.92155 16.6249 8.53705 15.9941 8.27443C15.3633 8.01181 14.685 7.87646 13.9996 7.87646C13.3143 7.87646 12.6359 8.01181 12.0052 8.27443C11.3744 8.53705 10.8041 8.92155 10.3284 9.40496C9.85265 9.88837 9.48125 10.4608 9.23634 11.088C8.99144 11.7152 8.87807 12.3843 8.903 13.0554C8.96675 14.7067 9.89825 16.5637 11.4275 18.4472C12.1538 19.3394 12.9522 20.173 13.8148 20.9399C13.8978 21.0134 13.9595 21.0668 14 21.1001L14.1852 20.9399ZM13.4465 21.7961C13.4465 21.7961 8 17.3015 8 12.879C8 11.3198 8.63214 9.82446 9.75736 8.72193C10.8826 7.6194 12.4087 7 14 7C15.5913 7 17.1174 7.6194 18.2426 8.72193C19.3679 9.82446 20 11.3198 20 12.879C20 17.3015 14.5535 21.7961 14.5535 21.7961C14.2505 22.0694 13.7517 22.0665 13.4465 21.7961ZM14 14.9367C14.557 14.9367 15.0911 14.7199 15.4849 14.334C15.8788 13.9481 16.1 13.4248 16.1 12.879C16.1 12.3333 15.8788 11.8099 15.4849 11.424C15.0911 11.0382 14.557 10.8214 14 10.8214C13.443 10.8214 12.9089 11.0382 12.5151 11.424C12.1212 11.8099 11.9 12.3333 11.9 12.879C11.9 13.4248 12.1212 13.9481 12.5151 14.334C12.9089 14.7199 13.443 14.9367 14 14.9367ZM14 15.8186C13.2044 15.8186 12.4413 15.5089 11.8787 14.9576C11.3161 14.4063 11 13.6586 11 12.879C11 12.0994 11.3161 11.3518 11.8787 10.8005C12.4413 10.2492 13.2044 9.93952 14 9.93952C14.7956 9.93952 15.5587 10.2492 16.1213 10.8005C16.6839 11.3518 17 12.0994 17 12.879C17 13.6586 16.6839 14.4063 16.1213 14.9576C15.5587 15.5089 14.7956 15.8186 14 15.8186Z" fill="#EC1A23"/>
</svg>
