<svg width="25" height="24" viewBox="0 0 25 24" fill="none" xmlns="http://www.w3.org/2000/svg">
<path d="M5.5 20V18H19.5V20H5.5ZM5.5 16.5L4.225 8.475C4.19167 8.475 4.154 8.47934 4.112 8.488C4.07 8.49667 4.03267 8.50067 4 8.5C3.58334 8.5 3.22934 8.354 2.938 8.062C2.64667 7.77 2.50067 7.416 2.5 7C2.49934 6.584 2.64534 6.23 2.938 5.938C3.23067 5.646 3.58467 5.5 4 5.5C4.41534 5.5 4.76967 5.646 5.063 5.938C5.35634 6.23 5.502 6.584 5.5 7C5.5 7.11667 5.48734 7.225 5.462 7.325C5.43667 7.425 5.40767 7.51667 5.375 7.6L8.5 9L11.625 4.725C11.4417 4.59167 11.2917 4.41667 11.175 4.2C11.0583 3.98334 11 3.75 11 3.5C11 3.08334 11.146 2.729 11.438 2.437C11.73 2.145 12.084 1.99934 12.5 2C12.916 2.00067 13.2703 2.14667 13.563 2.438C13.8557 2.72934 14.0013 3.08334 14 3.5C14 3.75 13.9417 3.98334 13.825 4.2C13.7083 4.41667 13.5583 4.59167 13.375 4.725L16.5 9L19.625 7.6C19.5917 7.51667 19.5623 7.425 19.537 7.325C19.5117 7.225 19.4993 7.11667 19.5 7C19.5 6.58334 19.646 6.229 19.938 5.937C20.23 5.645 20.584 5.49934 21 5.5C21.416 5.50067 21.7703 5.64667 22.063 5.938C22.3557 6.22934 22.5013 6.58334 22.5 7C22.4987 7.41667 22.353 7.771 22.063 8.063C21.773 8.355 21.4187 8.50067 21 8.5C20.9667 8.5 20.9293 8.496 20.888 8.488C20.8467 8.48 20.809 8.47567 20.775 8.475L19.5 16.5H5.5ZM7.2 14.5H17.8L18.45 10.325L15.825 11.475L12.5 6.9L9.175 11.475L6.55 10.325L7.2 14.5Z" fill="white"/>
</svg>
