<svg width="28" height="28" viewBox="0 0 28 28" fill="none" xmlns="http://www.w3.org/2000/svg">
<rect x="0.25" y="0.25" width="27.5" height="27.5" rx="4.75" fill="#FFE2E2" stroke="#EC1A23" stroke-width="0.5"/>
<path d="M19.8947 21C20.1879 21 20.469 20.8836 20.6763 20.6763C20.8836 20.469 21 20.1879 21 19.8947V17.3158C21 17.0227 20.8836 16.7415 20.6763 16.5343C20.469 16.327 20.1879 16.2105 19.8947 16.2105C19.0326 16.2105 18.1853 16.0779 17.3747 15.8053C17.181 15.7441 16.9741 15.7372 16.7767 15.7852C16.5792 15.8333 16.3987 15.9345 16.2547 16.0779L15.1937 17.1389C13.3606 16.1386 11.854 14.632 10.8537 12.7989L11.9074 11.7453C12.2095 11.4579 12.32 11.0305 12.1874 10.6179C11.9221 9.81474 11.7895 8.96737 11.7895 8.10526C11.7895 7.81213 11.673 7.531 11.4657 7.32372C11.2585 7.11645 10.9773 7 10.6842 7H8.10526C7.81213 7 7.531 7.11645 7.32372 7.32372C7.11645 7.531 7 7.81213 7 8.10526C7 15.2158 12.7842 21 19.8947 21ZM8.10526 7.73684H10.6842C10.7819 7.73684 10.8756 7.77566 10.9447 7.84475C11.0138 7.91384 11.0526 8.00755 11.0526 8.10526C11.0526 9.04842 11.2 9.96947 11.4874 10.8463C11.5242 10.9495 11.5168 11.0968 11.3989 11.2147L9.94737 12.6589C11.1632 15.0389 12.9463 16.8221 15.3337 18.0526L16.7705 16.6011C16.8737 16.4979 17.0137 16.4684 17.1463 16.5053C18.0305 16.8 18.9516 16.9474 19.8947 16.9474C19.9924 16.9474 20.0862 16.9862 20.1552 17.0553C20.2243 17.1244 20.2632 17.2181 20.2632 17.3158V19.8947C20.2632 19.9924 20.2243 20.0862 20.1552 20.1552C20.0862 20.2243 19.9924 20.2632 19.8947 20.2632C13.1895 20.2632 7.73684 14.8105 7.73684 8.10526C7.73684 8.00755 7.77566 7.91384 7.84475 7.84475C7.91384 7.77566 8.00755 7.73684 8.10526 7.73684Z" fill="#EC1A23"/>
</svg>
