<svg width="50" height="50" viewBox="0 0 50 50" fill="none" xmlns="http://www.w3.org/2000/svg">
<path fill-rule="evenodd" clip-rule="evenodd" d="M25 0C38.8075 0 50 11.1925 50 25C50 38.8075 38.8075 50 25 50C11.1925 50 0 38.8075 0 25C0 11.1925 11.1925 0 25 0ZM5.5125 29.525C6.38739 33.2809 8.32822 36.7044 11.1018 39.3839C13.8753 42.0634 17.3636 43.8851 21.1475 44.63C20.665 38.0675 18.5075 34.13 15.7825 31.9525C13.1725 29.865 9.6325 29.0575 5.5125 29.5225V29.525ZM34.2175 31.95C31.4925 34.1325 29.335 38.0675 28.8525 44.63C32.6367 43.8849 36.1252 42.0629 38.8988 39.3829C41.6724 36.7029 43.613 33.2789 44.4875 29.5225C40.3675 29.0575 36.8275 29.865 34.2175 31.9525V31.95ZM25 5C20.34 4.99918 15.8261 6.62559 12.2375 9.59839C8.649 12.5712 6.21117 16.7038 5.345 21.2825L5.2375 21.9025L10.7625 20.7975C12.2175 20.5075 13.6 19.74 15.145 18.6975L16.3375 17.8675C18.33 16.4525 21.2825 15 25 15C28.47 15 31.2725 16.265 33.25 17.585L34.855 18.6975C36.205 19.61 37.435 20.31 38.695 20.6675L39.2375 20.7975L44.7625 21.9025C44.024 17.1919 41.6269 12.9001 38.0033 9.8009C34.3797 6.70172 29.7682 4.99909 25 5Z" fill="white"/>
</svg>
