<svg width="28" height="28" viewBox="0 0 28 28" fill="none" xmlns="http://www.w3.org/2000/svg">
<rect x="0.25" y="0.25" width="27.5" height="27.5" rx="4.75" fill="#FFE2E2" stroke="#EC1A23" stroke-width="0.5"/>
<path d="M9.21053 8H18.7895C19.3757 8 19.938 8.23179 20.3526 8.64437C20.7671 9.05695 21 9.61652 21 10.2V16.8C21 17.3835 20.7671 17.9431 20.3526 18.3556C19.938 18.7682 19.3757 19 18.7895 19H9.21053C8.62426 19 8.062 18.7682 7.64745 18.3556C7.23289 17.9431 7 17.3835 7 16.8V10.2C7 9.61652 7.23289 9.05695 7.64745 8.64437C8.062 8.23179 8.62426 8 9.21053 8ZM9.21053 8.73333C8.84211 8.73333 8.51789 8.858 8.26737 9.078L14 12.7667L19.7326 9.078C19.4821 8.858 19.1579 8.73333 18.7895 8.73333H9.21053ZM14 13.654L7.83263 9.672C7.77368 9.83333 7.73684 10.0167 7.73684 10.2V16.8C7.73684 17.189 7.8921 17.562 8.16847 17.8371C8.44484 18.1121 8.81968 18.2667 9.21053 18.2667H18.7895C19.1803 18.2667 19.5552 18.1121 19.8315 17.8371C20.1079 17.562 20.2632 17.189 20.2632 16.8V10.2C20.2632 10.0167 20.2263 9.83333 20.1674 9.672L14 13.654Z" fill="#EC1A23"/>
</svg>
