<svg width="100" height="87" viewBox="0 0 100 87" fill="none" xmlns="http://www.w3.org/2000/svg">
<path d="M91.6667 30.4086L91.0833 29C91.9041 29 92.7168 28.8393 93.4751 28.527C94.2334 28.2147 94.9224 27.7569 95.5027 27.1799C96.0831 26.6028 96.5435 25.9178 96.8576 25.1638C97.1717 24.4099 97.3333 23.6018 97.3333 22.7857C97.3333 21.9696 97.1717 21.1616 96.8576 20.4076C96.5435 19.6537 96.0831 18.9686 95.5027 18.3916C94.9224 17.8145 94.2334 17.3568 93.4751 17.0445C92.7168 16.7322 91.9041 16.5714 91.0833 16.5714H85.9583L81.2917 5.01286C80.3626 3.48709 79.0544 2.22459 77.4928 1.34671C75.9313 0.468821 74.1689 0.00505986 72.375 0H27.625C25.7721 0.0184678 23.9569 0.522209 22.3622 1.46046C20.7675 2.39871 19.4497 3.73832 18.5417 5.34429L14 16.5714H8.83333C8.01257 16.5714 7.19985 16.7322 6.44156 17.0445C5.68328 17.3568 4.99428 17.8145 4.41392 18.3916C3.83355 18.9686 3.37318 19.6537 3.05909 20.4076C2.74499 21.1616 2.58333 21.9696 2.58333 22.7857C2.58333 23.6018 2.74499 24.4099 3.05909 25.1638C3.37318 25.9178 3.83355 26.6028 4.41392 27.1799C4.99428 27.7569 5.68328 28.2147 6.44156 28.527C7.19985 28.8393 8.01257 29 8.83333 29L8.33333 30.4086C5.84138 31.5839 3.73572 33.4377 2.2607 35.7549C0.785686 38.0721 0.00179534 40.7577 2.17142e-07 43.5V64.2143C-0.000489897 66.6019 0.828716 68.9164 2.34728 70.766C3.86584 72.6156 5.98049 73.8868 8.33333 74.3643V80.7857C8.33333 82.4338 8.99181 84.0145 10.1639 85.1799C11.336 86.3453 12.9257 87 14.5833 87H18.75C20.4076 87 21.9973 86.3453 23.1694 85.1799C24.3415 84.0145 25 82.4338 25 80.7857V74.5714H75V80.7857C75 82.4338 75.6585 84.0145 76.8306 85.1799C78.0027 86.3453 79.5924 87 81.25 87H85.4167C87.0743 87 88.664 86.3453 89.8361 85.1799C91.0082 84.0145 91.6667 82.4338 91.6667 80.7857V74.3643C94.0195 73.8868 96.1342 72.6156 97.6527 70.766C99.1713 68.9164 100 66.6019 100 64.2143V43.5C99.9982 40.7577 99.2143 38.0721 97.7393 35.7549C96.2643 33.4377 94.1586 31.5839 91.6667 30.4086ZM91.1667 20.7143C91.5571 20.7135 91.9399 20.8218 92.2715 21.027C92.603 21.2321 92.8699 21.5257 93.0417 21.8743C93.1974 22.1904 93.2696 22.5408 93.2514 22.8923C93.2332 23.2439 93.1251 23.5851 92.9375 23.8836C92.7498 24.1821 92.4888 24.4281 92.1789 24.5985C91.8691 24.7688 91.5207 24.8578 91.1667 24.8571H89.2917L87.625 20.7143H91.1667ZM14 27.7571L17.3333 19.4714L22.25 7.04286C22.824 6.14489 23.6188 5.40732 24.5593 4.89987C25.4998 4.39242 26.555 4.13188 27.625 4.14286H72.375C73.4023 4.13792 74.415 4.38484 75.3234 4.86175C76.2318 5.33867 77.0081 6.03089 77.5833 6.87714L86.5 29H13.5L14 27.7571ZM8.83333 24.8571C8.2808 24.8571 7.75089 24.6389 7.36019 24.2504C6.96949 23.862 6.75 23.3351 6.75 22.7857C6.75 22.2363 6.96949 21.7095 7.36019 21.321C7.75089 20.9325 8.2808 20.7143 8.83333 20.7143H12.5L10.8333 24.8571H8.83333ZM20.8333 80.7857C20.8333 81.3351 20.6138 81.862 20.2231 82.2504C19.8324 82.6389 19.3025 82.8571 18.75 82.8571H14.5833C14.0308 82.8571 13.5009 82.6389 13.1102 82.2504C12.7195 81.862 12.5 81.3351 12.5 80.7857V74.5714H20.8333V80.7857ZM31.7083 70.4286L34.125 58H65.9583L68.375 70.4286H31.7083ZM87.5 80.7857C87.5 81.3351 87.2805 81.862 86.8898 82.2504C86.4991 82.6389 85.9692 82.8571 85.4167 82.8571H81.25C80.6975 82.8571 80.1676 82.6389 79.7769 82.2504C79.3862 81.862 79.1667 81.3351 79.1667 80.7857V74.5714H87.5V80.7857ZM95.8333 64.2143C95.8333 65.8624 95.1748 67.443 94.0027 68.6084C92.8306 69.7738 91.2409 70.4286 89.5833 70.4286H72.5417L69.6667 55.5557C69.5792 55.0802 69.3271 54.6501 68.9543 54.3399C68.5814 54.0297 68.1112 53.8589 67.625 53.8571H32.375C31.8888 53.8589 31.4186 54.0297 31.0457 54.3399C30.6729 54.6501 30.4208 55.0802 30.3333 55.5557L27.4583 70.4286H10.4167C8.75906 70.4286 7.16935 69.7738 5.99725 68.6084C4.82515 67.443 4.16667 65.8624 4.16667 64.2143V43.5C4.16667 40.7531 5.26413 38.1187 7.21764 36.1764C9.17114 34.2341 11.8207 33.1429 14.5833 33.1429H85.4167C88.1793 33.1429 90.8289 34.2341 92.7824 36.1764C94.7359 38.1187 95.8333 40.7531 95.8333 43.5V64.2143ZM27.0833 37.2857H14.5833C12.9257 37.2857 11.336 37.9404 10.1639 39.1058C8.99181 40.2712 8.33333 41.8519 8.33333 43.5V47.6429C8.33333 48.1922 8.55283 48.7191 8.94353 49.1076C9.33423 49.496 9.86413 49.7143 10.4167 49.7143H27.0833C27.6359 49.7143 28.1658 49.496 28.5565 49.1076C28.9472 48.7191 29.1667 48.1922 29.1667 47.6429V39.3571C29.1667 38.8078 28.9472 38.2809 28.5565 37.8924C28.1658 37.504 27.6359 37.2857 27.0833 37.2857ZM25 45.5714H12.5V43.5C12.5 42.9506 12.7195 42.4237 13.1102 42.0353C13.5009 41.6468 14.0308 41.4286 14.5833 41.4286H25V45.5714ZM14.5833 53.8571C13.3472 53.8571 12.1388 54.2216 11.111 54.9044C10.0832 55.5873 9.28213 56.5578 8.80909 57.6933C8.33604 58.8288 8.21227 60.0783 8.45343 61.2838C8.69458 62.4892 9.28984 63.5965 10.1639 64.4656C11.038 65.3347 12.1516 65.9265 13.364 66.1663C14.5764 66.4061 15.8331 66.283 16.9751 65.8127C18.1171 65.3423 19.0933 64.5458 19.78 63.5239C20.4668 62.502 20.8333 61.3005 20.8333 60.0714C20.8333 58.4233 20.1749 56.8427 19.0028 55.6773C17.8306 54.5119 16.2409 53.8571 14.5833 53.8571ZM14.5833 62.1429C14.1713 62.1429 13.7685 62.0214 13.4259 61.7938C13.0833 61.5661 12.8163 61.2426 12.6586 60.8641C12.5009 60.4856 12.4596 60.0691 12.54 59.6673C12.6204 59.2655 12.8188 58.8964 13.1102 58.6067C13.4016 58.317 13.7728 58.1197 14.1769 58.0398C14.581 57.9599 14.9999 58.0009 15.3806 58.1577C15.7613 58.3145 16.0866 58.58 16.3156 58.9206C16.5445 59.2612 16.6667 59.6617 16.6667 60.0714C16.6667 60.6208 16.4472 61.1477 16.0565 61.5362C15.6658 61.9246 15.1359 62.1429 14.5833 62.1429ZM60.4167 41.4286H43.75C43.1975 41.4286 42.6676 41.6468 42.2769 42.0353C41.8862 42.4237 41.6667 42.9506 41.6667 43.5C41.6667 44.0494 41.8862 44.5763 42.2769 44.9647C42.6676 45.3532 43.1975 45.5714 43.75 45.5714H60.4167C60.9692 45.5714 61.4991 45.3532 61.8898 44.9647C62.2805 44.5763 62.5 44.0494 62.5 43.5C62.5 42.9506 62.2805 42.4237 61.8898 42.0353C61.4991 41.6468 60.9692 41.4286 60.4167 41.4286ZM85.4167 37.2857H72.9167C72.3641 37.2857 71.8342 37.504 71.4435 37.8924C71.0528 38.2809 70.8333 38.8078 70.8333 39.3571V47.6429C70.8333 48.1922 71.0528 48.7191 71.4435 49.1076C71.8342 49.496 72.3641 49.7143 72.9167 49.7143H89.5833C90.1359 49.7143 90.6658 49.496 91.0565 49.1076C91.4472 48.7191 91.6667 48.1922 91.6667 47.6429V43.5C91.6667 41.8519 91.0082 40.2712 89.8361 39.1058C88.664 37.9404 87.0743 37.2857 85.4167 37.2857ZM87.5 45.5714H75V41.4286H85.4167C85.9692 41.4286 86.4991 41.6468 86.8898 42.0353C87.2805 42.4237 87.5 42.9506 87.5 43.5V45.5714ZM85.4167 53.8571C84.1805 53.8571 82.9722 54.2216 81.9444 54.9044C80.9165 55.5873 80.1155 56.5578 79.6424 57.6933C79.1694 58.8288 79.0456 60.0783 79.2868 61.2838C79.5279 62.4892 80.1232 63.5965 80.9972 64.4656C81.8713 65.3347 82.985 65.9265 84.1973 66.1663C85.4097 66.4061 86.6664 66.283 87.8084 65.8127C88.9505 65.3423 89.9266 64.5458 90.6133 63.5239C91.3001 62.502 91.6667 61.3005 91.6667 60.0714C91.6667 58.4233 91.0082 56.8427 89.8361 55.6773C88.664 54.5119 87.0743 53.8571 85.4167 53.8571ZM85.4167 62.1429C85.0046 62.1429 84.6018 62.0214 84.2592 61.7938C83.9166 61.5661 83.6496 61.2426 83.4919 60.8641C83.3342 60.4856 83.293 60.0691 83.3734 59.6673C83.4537 59.2655 83.6522 58.8964 83.9435 58.6067C84.2349 58.317 84.6061 58.1197 85.0102 58.0398C85.4144 57.9599 85.8332 58.0009 86.2139 58.1577C86.5946 58.3145 86.92 58.58 87.1489 58.9206C87.3778 59.2612 87.5 59.6617 87.5 60.0714C87.5 60.6208 87.2805 61.1477 86.8898 61.5362C86.4991 61.9246 85.9692 62.1429 85.4167 62.1429Z" fill="#EC1A23"/>
</svg>
