<svg width="50" height="50" viewBox="0 0 50 50" fill="none" xmlns="http://www.w3.org/2000/svg">
<circle cx="25" cy="25" r="25" fill="#FFE2E2"/>
<path d="M24.8925 10.082C19.827 10.082 15.7285 14.1748 15.7285 19.2324V23.75H18.8281V19.4316C18.8281 16.078 21.545 13.3574 24.8925 13.3574C28.2402 13.3574 30.957 16.1539 30.957 19.4315V23.75H34.0566V19.2325C34.0566 14.304 29.9493 10.082 24.8926 10.082H24.8925ZM14.3223 24.918C13.4092 26.3447 12.8946 27.9897 12.8946 29.7167C12.8946 35.2391 18.2052 39.8105 24.8927 39.8105C31.5801 39.8105 36.8907 35.2391 36.8907 29.7167C36.8907 27.9895 36.3744 26.3448 35.461 24.918H14.3222H14.3223ZM24.875 26.414C26.2712 26.414 27.4297 27.5353 27.4297 28.9315C27.4297 29.9788 26.7672 30.8834 25.8594 31.2675L27.9044 37.4004H21.8809L23.8887 31.2676C22.9808 30.8835 22.3554 29.9788 22.3554 28.9317C22.3554 27.5356 23.4787 26.4142 24.8749 26.4142L24.875 26.414Z" fill="#EC1A23"/>
</svg>
