<svg width="46" height="53" viewBox="0 0 46 53" fill="none" xmlns="http://www.w3.org/2000/svg">
<path d="M18 5.5C17.2917 5.5 16.6983 5.26 16.22 4.78C15.7417 4.3 15.5017 3.70667 15.5 3C15.4983 2.29333 15.7383 1.7 16.22 1.22C16.7017 0.74 17.295 0.5 18 0.5H28C28.7083 0.5 29.3025 0.74 29.7825 1.22C30.2625 1.7 30.5017 2.29333 30.5 3C30.4983 3.70667 30.2583 4.30083 29.78 4.7825C29.3017 5.26417 28.7083 5.50333 28 5.5H18ZM23 33C23.7083 33 24.3025 32.76 24.7825 32.28C25.2625 31.8 25.5017 31.2067 25.5 30.5V20.5C25.5 19.7917 25.26 19.1983 24.78 18.72C24.3 18.2417 23.7067 18.0017 23 18C22.2933 17.9983 21.7 18.2383 21.22 18.72C20.74 19.2017 20.5 19.795 20.5 20.5V30.5C20.5 31.2083 20.74 31.8025 21.22 32.2825C21.7 32.7625 22.2933 33.0017 23 33ZM23 53C19.9167 53 17.01 52.4067 14.28 51.22C11.55 50.0333 9.165 48.4183 7.125 46.375C5.085 44.3317 3.47083 41.9458 2.2825 39.2175C1.09417 36.4892 0.5 33.5833 0.5 30.5C0.5 27.4167 1.09417 24.51 2.2825 21.78C3.47083 19.05 5.085 16.665 7.125 14.625C9.165 12.585 11.5508 10.9708 14.2825 9.7825C17.0142 8.59417 19.92 8 23 8C25.5833 8 28.0625 8.41667 30.4375 9.25C32.8125 10.0833 35.0417 11.2917 37.125 12.875L38.875 11.125C39.3333 10.6667 39.9167 10.4375 40.625 10.4375C41.3333 10.4375 41.9167 10.6667 42.375 11.125C42.8333 11.5833 43.0625 12.1667 43.0625 12.875C43.0625 13.5833 42.8333 14.1667 42.375 14.625L40.625 16.375C42.2083 18.4583 43.4167 20.6875 44.25 23.0625C45.0833 25.4375 45.5 27.9167 45.5 30.5C45.5 33.5833 44.9058 36.49 43.7175 39.22C42.5292 41.95 40.915 44.335 38.875 46.375C36.835 48.415 34.4492 50.03 31.7175 51.22C28.9858 52.41 26.08 53.0033 23 53ZM23 48C27.8333 48 31.9583 46.2917 35.375 42.875C38.7917 39.4583 40.5 35.3333 40.5 30.5C40.5 25.6667 38.7917 21.5417 35.375 18.125C31.9583 14.7083 27.8333 13 23 13C18.1667 13 14.0417 14.7083 10.625 18.125C7.20833 21.5417 5.5 25.6667 5.5 30.5C5.5 35.3333 7.20833 39.4583 10.625 42.875C14.0417 46.2917 18.1667 48 23 48Z" fill="white"/>
</svg>
