<svg width="20" height="20" viewBox="0 0 20 20" fill="none" xmlns="http://www.w3.org/2000/svg">
<path d="M17.05 2.91005C16.1331 1.98416 15.0411 1.25002 13.8376 0.750416C12.634 0.250812 11.3431 -0.00426317 10.04 5.38951e-05C4.58005 5.38951e-05 0.130049 4.45005 0.130049 9.91005C0.130049 11.6601 0.590049 13.3601 1.45005 14.8601L0.0500488 20.0001L5.30005 18.6201C6.75005 19.4101 8.38005 19.8301 10.04 19.8301C15.5 19.8301 19.9501 15.3801 19.9501 9.92005C19.9501 7.27005 18.92 4.78005 17.05 2.91005ZM10.04 18.1501C8.56005 18.1501 7.11005 17.7501 5.84005 17.0001L5.54005 16.8201L2.42005 17.6401L3.25005 14.6001L3.05005 14.2901C2.2276 12.9771 1.79097 11.4593 1.79005 9.91005C1.79005 5.37005 5.49005 1.67005 10.03 1.67005C12.23 1.67005 14.3 2.53005 15.85 4.09005C16.6177 4.85392 17.226 5.7626 17.6397 6.76338C18.0534 7.76417 18.2642 8.83714 18.26 9.92005C18.2801 14.4601 14.58 18.1501 10.04 18.1501ZM14.56 11.9901C14.31 11.8701 13.09 11.2701 12.87 11.1801C12.64 11.1001 12.48 11.0601 12.31 11.3001C12.14 11.5501 11.67 12.1101 11.53 12.2701C11.39 12.4401 11.24 12.4601 10.99 12.3301C10.74 12.2101 9.94005 11.9401 9.00005 11.1001C8.26005 10.4401 7.77005 9.63005 7.62005 9.38005C7.48005 9.13005 7.60005 9.00005 7.73005 8.87005C7.84005 8.76005 7.98005 8.58005 8.10005 8.44005C8.22005 8.30005 8.27005 8.19005 8.35005 8.03005C8.43005 7.86005 8.39005 7.72005 8.33005 7.60005C8.27005 7.48005 7.77005 6.26005 7.57005 5.76005C7.37005 5.28005 7.16005 5.34005 7.01005 5.33005H6.53005C6.36005 5.33005 6.10005 5.39005 5.87005 5.64005C5.65005 5.89005 5.01005 6.49005 5.01005 7.71005C5.01005 8.93005 5.90005 10.1101 6.02005 10.2701C6.14005 10.4401 7.77005 12.9401 10.25 14.0101C10.84 14.2701 11.3 14.4201 11.66 14.5301C12.25 14.7201 12.79 14.6901 13.22 14.6301C13.7 14.5601 14.69 14.0301 14.89 13.4501C15.1 12.8701 15.1 12.3801 15.03 12.2701C14.96 12.1601 14.81 12.1101 14.56 11.9901Z" fill="white"/>
</svg>
