<svg width="28" height="22" viewBox="0 0 28 22" fill="none" xmlns="http://www.w3.org/2000/svg">
<path d="M14 0.333496C15.14 0.333496 16.3093 0.36283 17.4427 0.41083L18.7813 0.474829L20.0627 0.55083L21.2627 0.632163L22.3587 0.717496C23.5483 0.808018 24.6677 1.31541 25.5199 2.1503C26.3722 2.98519 26.9024 4.09402 27.0173 5.2815L27.0707 5.84816L27.1707 7.0615C27.264 8.31883 27.3333 9.6895 27.3333 11.0002C27.3333 12.3108 27.264 13.6815 27.1707 14.9388L27.0707 16.1522L27.0173 16.7188C26.9024 17.9065 26.3719 19.0155 25.5194 19.8504C24.667 20.6853 23.5472 21.1926 22.3573 21.2828L21.264 21.3668L20.064 21.4495L18.7813 21.5255L17.4427 21.5895C16.2958 21.6392 15.148 21.665 14 21.6668C12.852 21.665 11.7042 21.6392 10.5573 21.5895L9.21867 21.5255L7.93734 21.4495L6.73734 21.3668L5.64134 21.2828C4.45176 21.1923 3.33227 20.6849 2.48006 19.85C1.62786 19.0151 1.09759 17.9063 0.982672 16.7188L0.929338 16.1522L0.829338 14.9388C0.727782 13.6283 0.673525 12.3146 0.666672 11.0002C0.666672 9.6895 0.736005 8.31883 0.829338 7.0615L0.929338 5.84816L0.982672 5.2815C1.09755 4.09423 1.62762 2.98557 2.47956 2.1507C3.33149 1.31584 4.45066 0.808318 5.64 0.717496L6.73467 0.632163L7.93467 0.55083L9.21734 0.474829L10.556 0.41083C11.7033 0.361132 12.8516 0.335349 14 0.333496ZM14 3.00016C12.9 3.00016 11.768 3.0295 10.6667 3.07483L9.36267 3.1375L8.11067 3.21083L6.93467 3.29083L5.85734 3.37483C5.29093 3.41448 4.75692 3.65367 4.35022 4.04987C3.94351 4.44608 3.69045 4.97365 3.63601 5.53883C3.48001 7.15083 3.33334 9.1575 3.33334 11.0002C3.33334 12.8428 3.48001 14.8495 3.63601 16.4615C3.74934 17.6242 4.67201 18.5282 5.85734 18.6255L6.93467 18.7082L8.11067 18.7882L9.36267 18.8628L10.6667 18.9255C11.768 18.9708 12.9 19.0002 14 19.0002C15.1 19.0002 16.232 18.9708 17.3333 18.9255L18.6373 18.8628L19.8893 18.7895L21.0653 18.7095L22.1427 18.6255C22.7091 18.5858 23.2431 18.3467 23.6498 17.9505C24.0565 17.5542 24.3096 17.0267 24.364 16.4615C24.52 14.8495 24.6667 12.8428 24.6667 11.0002C24.6667 9.1575 24.52 7.15083 24.364 5.53883C24.3096 4.97365 24.0565 4.44608 23.6498 4.04987C23.2431 3.65367 22.7091 3.41448 22.1427 3.37483L21.0653 3.29216L19.8893 3.21216L18.6373 3.1375L17.3333 3.07483C16.2229 3.02717 15.1115 3.00227 14 3.00016ZM11.3333 7.76683C11.3333 7.63651 11.365 7.50815 11.4258 7.3929C11.4867 7.27765 11.5747 7.17901 11.6823 7.10554C11.79 7.03208 11.9139 6.98602 12.0434 6.97137C12.1729 6.95672 12.304 6.97393 12.4253 7.0215L12.5333 7.07483L18.1333 10.3068C18.2449 10.3712 18.3392 10.4615 18.4083 10.5701C18.4775 10.6787 18.5194 10.8024 18.5305 10.9306C18.5417 11.0589 18.5217 11.1879 18.4722 11.3068C18.4228 11.4257 18.3454 11.5309 18.2467 11.6135L18.1333 11.6935L12.5333 14.9268C12.4205 14.9922 12.2934 15.0289 12.1631 15.0339C12.0328 15.0389 11.9032 15.012 11.7857 14.9555C11.6682 14.8989 11.5662 14.8145 11.4888 14.7096C11.4114 14.6047 11.3607 14.4825 11.3413 14.3535L11.3333 14.2335V7.76683Z" fill="black"/>
</svg>
